<svg width="310" height="310" viewBox="0 0 310 310" xmlns="http://www.w3.org/2000/svg" class="" style=""><g fill="none" fill-rule="evenodd"><path d="M155 290c74.558 0 135-60.442 135-135 0-74.558-60.442-135-135-135C80.442 20 20 80.442 20 155c0 74.558 60.442 135 135 135zm0 20C69.396 310 0 240.604 0 155S69.396 0 155 0s155 69.396 155 155-69.396 155-155 155z" fill="#484848" fill-rule="nonzero" class="ygCeXwTF_0"></path><path stroke="#FFF" stroke-width="20" transform="rotate(90 155 155)" d="M10,155A145,145 0,1,1 300,155A145,145 0,1,1 10,155" class="ygCeXwTF_1"></path><path d="M155 0C87.407 0 28.224 43.66 7.602 106.926l19.016 6.198C44.576 58.03 96.128 20 155 20V0z" fill="#484848" fill-rule="nonzero" class="ygCeXwTF_2"></path></g><style>.ygCeXwTF_0{stroke-dasharray:1823 1825;stroke-dashoffset:1824;}.start .ygCeXwTF_0{animation:ygCeXwTF_draw 1333ms ease-in-out 0ms forwards;}.ygCeXwTF_1{stroke-dasharray:912 914;stroke-dashoffset:913;}.start .ygCeXwTF_1{animation:ygCeXwTF_draw 1333ms ease-in-out 333ms forwards;}.ygCeXwTF_2{stroke-dasharray:405 407;stroke-dashoffset:406;}.start .ygCeXwTF_2{animation:ygCeXwTF_draw 1333ms ease-in-out 666ms forwards;}@keyframes ygCeXwTF_draw{100%{stroke-dashoffset:0;}}@keyframes ygCeXwTF_fade{0%{stroke-opacity:1;}93.54838709677419%{stroke-opacity:1;}100%{stroke-opacity:0;}}</style></svg>