<?xml version="1.0" standalone="no"?>
<!DOCTYPE svg PUBLIC "-//W3C//DTD SVG 20010904//EN"
 "http://www.w3.org/TR/2001/REC-SVG-20010904/DTD/svg10.dtd">
<svg version="1.0" xmlns="http://www.w3.org/2000/svg"
 width="426.000000pt" height="426.000000pt" viewBox="0 0 426.000000 426.000000"
 preserveAspectRatio="xMidYMid meet">
<metadata>
Created by potrace 1.11, written by Peter Selinger 2001-2013
</metadata>
<g transform="translate(0.000000,426.000000) scale(0.100000,-0.100000)"
fill="#000000" stroke="none">
<path d="M2005 4095 c-235 -32 -422 -88 -631 -190 -118 -57 -307 -174 -359
-222 -11 -10 -40 -34 -65 -54 -57 -46 -195 -187 -253 -259 -196 -243 -365
-605 -411 -880 -3 -19 -8 -45 -10 -57 -4 -21 -16 -123 -22 -188 -1 -16 -3 -54
-3 -82 l-1 -53 -101 0 -101 0 6 -102 c23 -413 171 -811 420 -1128 116 -148
302 -327 416 -398 14 -9 27 -19 30 -23 11 -13 175 -109 187 -109 7 0 13 -4 13
-10 0 -5 4 -10 9 -10 5 0 49 -18 97 -41 148 -69 375 -137 519 -155 22 -3 65
-9 95 -14 83 -12 355 -9 450 5 145 22 160 25 262 51 120 30 275 87 378 139 86
43 213 115 220 125 3 4 15 12 26 18 74 39 279 221 374 333 30 35 63 72 73 84
47 52 164 240 221 356 82 166 159 406 181 564 17 124 23 193 24 263 l1 52 101
0 101 0 -6 114 c-3 63 -8 120 -10 127 -3 8 -7 34 -10 59 -22 185 -97 415 -202
617 -140 271 -307 473 -550 663 -56 44 -105 80 -109 80 -3 0 -21 10 -38 23
-128 90 -376 201 -554 247 -86 22 -98 25 -183 39 -30 6 -71 13 -90 16 -66 12
-404 12 -495 0z"/>
</g>
</svg>
